<svg
   xmlns="http://www.w3.org/2000/svg"
   viewBox="0 0 848 156"
   width="217"
   height="40"
   isolation="isolate"
>
    <defs />
    <g transform="matrix(1.3333333,0,0,-1.3333333,0,156)">
        <g transform="scale(0.1)">
            <path
                d="m 1813.65,394.301 -35.37,-77.391 c -29.02,-13.25 -59.55,-22.98 -91.59,-29.308 -32.02,-6.301 -63.82,-9.422 -95.22,-9.422 -86.42,0 -156.14,21.769 -209.08,65.289 -52.85,43.531 -79.4,102.492 -79.4,176.992 0,20.418 2.15,40.809 6.41,61.211 22.34,112.316 74.63,198.738 156.9,259.41 74.99,55.25 165.36,82.867 271.18,82.867 31.46,0 62.86,-3.738 94.38,-11.289 31.4,-7.461 58.56,-18.41 81.57,-32.851 L 1874.47,787 h -12.67 c -12.11,24.609 -30.29,44.59 -54.49,59.969 -24.15,15.25 -50.78,22.929 -79.76,22.929 -70.16,0 -130.02,-29.437 -179.61,-88.207 -42.33,-50.472 -70.74,-112.921 -85.26,-187.371 -5.42,-28.218 -8.14,-54.351 -8.14,-78.379 0,-57.05 14.58,-101.921 43.97,-134.66 29.3,-32.679 72.12,-49.07 128.34,-49.07 27.82,0 57.72,6.09 89.75,18.527 32.07,12.25 60.78,28.563 86.15,49.024 z m 90.74,104.519 c 13.9,70.879 45.97,127.891 96.15,171.149 50.19,43.222 109.74,64.82 178.65,64.82 60.52,0 108.15,-14.82 142.88,-44.551 34.81,-29.789 52.13,-70.707 52.13,-122.929 0,-15.059 -1.78,-31.25 -5.43,-48.59 -13.33,-69.168 -45.65,-125.809 -97.07,-170.297 -51.36,-44.453 -111.85,-66.672 -181.39,-66.672 -59.25,0 -106.02,14.91 -140.11,44.629 -34.21,29.691 -51.26,70.66 -51.26,122.891 0,15.64 1.82,32.16 5.45,49.55 z m 135.16,2.719 c -0.62,-3.039 -1.98,-12.18 -4.12,-27.437 -2.06,-15.383 -3.17,-30.204 -3.17,-44.68 0,-31.781 4.24,-56.371 12.75,-73.813 10.85,-22.211 28.68,-33.347 53.49,-33.347 32.59,0 62.24,22.847 88.9,68.539 22.32,38.359 39.25,86.129 50.74,143.14 4.25,20.379 6.38,40.891 6.38,61.289 0,30.61 -5.43,54.95 -16.32,72.891 -10.91,18.02 -27.79,27.109 -50.79,27.109 -34.49,0 -64.07,-18.96 -88.9,-56.82 -21.16,-33 -37.47,-78.64 -48.96,-136.871 z m 537.81,-142.25 c 38.07,60.543 75.86,121.242 113.4,181.922 58.63,94.238 95.83,154.891 111.52,181.891 27.19,45.636 62.92,107.808 107.03,186.418 4.26,0 11.38,-0.54 21.34,-1.79 9.96,-1.218 15.25,-1.761 15.88,-1.761 4.24,0 10.88,0.543 19.89,1.761 9.12,1.25 15.76,1.79 19.98,1.79 14.56,-85.309 31.44,-177.391 50.81,-276.508 16.31,-82.242 35.07,-173.551 56.21,-273.723 h 43.6 c -3.01,-8.48 -6.02,-17.328 -9.11,-26.668 -3.04,-9.25 -5.16,-17.062 -6.3,-23.371 -1.28,-6.309 -2.17,-13.07 -2.79,-20.262 -0.61,-7.238 -0.93,-15.949 -0.93,-26.129 h -13.59 c -8.41,13.243 -25.38,21.789 -50.78,25.641 -25.42,3.91 -55.94,5.879 -91.6,5.879 h -267.59 c -41.7,0 -75.41,-1.68 -101.1,-4.93 -25.7,-3.32 -45.83,-12.219 -60.35,-26.59 h -13.59 c 2.44,5.391 5.04,12.621 7.76,21.672 2.73,8.91 4.98,17.949 6.73,26.957 l 4.58,47.801 z m 362.8,0 c -6.66,49.18 -16.94,112.242 -30.85,189.109 -18.16,100.274 -29.28,163.602 -33.57,190.012 -25.37,-42.07 -50.96,-84.23 -76.61,-126.57 -25.69,-42.301 -49.92,-83.301 -72.53,-122.891 -22.71,-39.679 -46.76,-82.898 -72.16,-129.66 19.95,-1.238 42.07,-2.168 66.22,-2.809 24.22,-0.55 47.46,-0.871 69.89,-0.871 24.16,0 49.5,0.321 76.13,0.871 26.64,0.641 51.12,1.571 73.48,2.809 z m 391.81,148.551 c -4.76,-21.008 -7.22,-39.668 -7.22,-55.852 0,-34.168 9.05,-61.406 27.18,-81.519 18.16,-20.078 45.72,-30.149 82.52,-30.149 19.37,0 38.73,3.43 58.05,10.418 19.35,6.852 38.14,16.961 56.22,30.121 l 8.17,-8.129 -28.96,-50.468 c -43.6,-26.981 -89.51,-40.512 -137.9,-40.512 -64.06,0 -112.93,15.512 -146.42,46.422 -33.64,30.91 -50.41,74.297 -50.41,130.117 0,19.813 2.09,39.93 6.34,60.43 12.72,64.722 42.04,117.011 88.03,156.652 45.94,39.578 101.59,59.418 166.85,59.418 53.79,0 93.52,-13.809 118.86,-41.398 23.55,-25.27 35.39,-61.551 35.39,-109 0,-23.969 -2.83,-49.551 -8.2,-76.551 z m 151.47,43.219 c 1.24,7.203 2.7,17.851 4.53,31.992 1.82,14.078 2.74,25.668 2.74,34.679 0,22.2 -3.34,40.7 -9.94,55.329 -6.68,14.761 -17.86,22.171 -33.54,22.171 -28.43,0 -52.91,-18.089 -73.53,-54.058 -13.35,-23.442 -24.45,-53.481 -33.54,-90.113 z m 302.98,-99.071 c 25.94,25.864 52.29,53.703 78.84,83.793 32.06,35.391 58.99,66.289 80.73,92.731 16.98,20.449 43.25,52.879 78.95,97.277 l 47.16,-2.687 45.37,2.687 -85.23,-435.07 c -6.65,0 -18.21,0.711 -34.56,1.851 -16.31,1.2 -25.3,1.809 -27.17,1.809 -6.68,0 -16.95,-0.609 -30.85,-1.809 -13.86,-1.14 -24.78,-1.851 -32.64,-1.851 l 54.45,277.472 c -41.7,-42.043 -84.69,-88.871 -128.8,-140.519 -39.24,-45.633 -76.25,-91.25 -110.67,-136.953 -2.97,0 -9.36,0.711 -19.09,1.851 -9.64,1.2 -18.1,1.809 -25.38,1.809 -10.83,0 -20.86,-0.609 -29.93,-1.809 -8.93,-1.14 -15.06,-1.851 -18.07,-1.851 l 85.2,435.07 c 10.31,-1.23 20.06,-2.09 29.52,-2.687 9.37,-0.602 20.09,-0.903 32.16,-0.903 17.58,0 31.32,0.551 41.33,1.77 9.96,1.25 17.31,1.82 22.19,1.82 z m 7.25,430.532 c 38.65,-44.469 84.94,-66.649 138.71,-66.649 53.87,0 110.18,22.18 168.77,66.649 l 21.73,-38.7 c -63.42,-51.039 -130.57,-76.582 -201.37,-76.582 -33.22,0 -63.97,6.16 -92.04,18.492 -28.14,12.27 -52.73,31.321 -73.93,57.168 z m 738.32,-280.989 h -20.89 c 0,26.981 -6,49.391 -18.12,67.129 -12.13,17.621 -31.21,26.57 -57.15,26.57 -38.07,0 -71.09,-21.082 -98.88,-63.121 -22.39,-33 -37.77,-71.449 -46.21,-115.218 -4.24,-21.082 -6.38,-42.102 -6.38,-63.129 0,-35.942 8.77,-63.91 26.32,-83.723 17.47,-19.777 44.94,-29.719 82.5,-29.719 18.74,0 37.23,3.762 55.32,11.289 18.15,7.473 34.16,17.832 48.09,31.039 l 12.7,-12.609 -32.68,-53.129 c -13.29,-10.859 -33.38,-19.379 -60.26,-25.691 -26.89,-6.309 -49.75,-9.469 -68.52,-9.469 -62.23,0 -111.22,14.43 -146.99,43.199 -35.65,28.832 -53.48,70.281 -53.48,124.321 0,15.64 1.82,32.441 5.44,50.449 14.53,72.691 47.46,130.043 98.87,172.062 51.42,42.008 113.41,63.008 185.95,63.008 27.82,0 54.82,-3.141 81.28,-9.437 26.2,-6.301 48.18,-16.383 65.68,-30.122 z m 326.5,72.02 -75.22,-382.832 c -6.75,0 -16.93,0.711 -30.94,1.851 -13.84,1.2 -24.14,1.809 -30.74,1.809 -7.37,0 -19.4,-0.609 -36.33,-1.809 -16.94,-1.14 -26.03,-1.851 -27.21,-1.851 l 75.29,382.832 c -39.89,0 -67.13,-0.571 -81.65,-1.77 -21.78,-3.011 -41.38,-5.101 -58.96,-6.312 3.64,10.191 7.27,20.402 10.88,30.633 0,9.597 0.33,19.527 0.94,29.687 h 201.35 202.3 c -3.67,-10.16 -7.01,-20.09 -9.97,-29.687 -0.7,-3.633 -0.97,-8.692 -0.97,-15.313 0,-7.238 -0.27,-12.309 -0.89,-15.32 -9.7,0.543 -24.83,2.062 -45.34,4.5 -20.58,2.34 -51.48,3.582 -92.54,3.582 z m 199.56,52.238 h 189.56 c 41.69,0 75.55,-6.738 101.6,-20.219 26,-13.601 39.04,-35 39.04,-64.398 0,-9.063 -0.64,-15.902 -1.84,-20.723 -4.86,-24.051 -17.88,-44.91 -39.02,-62.629 -21.17,-17.699 -46.91,-28.082 -77.15,-31.07 32.65,-6.02 56.31,-14.078 70.83,-24.32 20.54,-14.41 30.79,-35.379 30.79,-63.008 0,-7.211 -0.89,-15.953 -2.71,-26.121 -7.87,-38.461 -31.45,-68.469 -70.77,-90.09 -35.6,-19.891 -77.61,-29.77 -126.07,-29.77 h -198.65 z m 49.87,-384.617 h 28.17 c 27.13,0 50.42,6.488 69.73,19.59 19.41,12.886 31.18,31.527 35.44,55.617 1.77,9.07 2.72,17.133 2.72,24.543 0,21.129 -6.76,36.187 -20.36,45.168 -13.67,9.082 -32.55,13.629 -56.76,13.629 h -28.08 z m 39.94,205.379 h 22.61 c 24.8,0 45.13,5.59 60.8,16.668 15.69,11.133 26.01,29 30.84,53.57 1.27,8.481 1.79,14.449 1.79,18.043 0,16.227 -5.38,27.938 -16.29,35.137 -10.9,7.172 -26.62,10.82 -47.21,10.82 h -26.3 z m 435.36,-94.563 c 26.02,25.864 52.29,53.703 78.86,83.793 32.07,35.391 58.97,66.289 80.73,92.731 16.95,20.449 43.27,52.879 78.93,97.277 l 47.16,-2.687 45.35,2.687 -85.21,-435.07 c -6.67,0 -18.18,0.711 -34.49,1.851 -16.34,1.2 -25.45,1.809 -27.22,1.809 -6.65,0 -16.98,-0.609 -30.87,-1.809 -13.87,-1.14 -24.75,-1.851 -32.67,-1.851 l 54.43,277.472 c -41.7,-42.043 -84.58,-88.871 -128.78,-140.519 -39.29,-45.633 -76.2,-91.25 -110.63,-136.953 -2.97,0 -9.39,0.711 -19.06,1.851 -9.71,1.2 -18.15,1.809 -25.37,1.809 -10.94,0 -20.87,-0.609 -29.88,-1.809 -9.14,-1.14 -15.21,-1.851 -18.25,-1.851 l 85.34,435.07 c 10.26,-1.23 20.02,-2.09 29.46,-2.687 9.36,-0.602 20.06,-0.903 32.16,-0.903 17.5,0 31.28,0.551 41.3,1.77 9.98,1.25 17.34,1.82 22.2,1.82 z m 503.33,55.852 c -4.82,-21.008 -7.24,-39.668 -7.24,-55.852 0,-34.168 9.07,-61.406 27.27,-81.519 18.1,-20.078 45.61,-30.149 82.46,-30.149 19.36,0 38.73,3.43 58.05,10.418 19.32,6.852 38.12,16.961 56.28,30.121 l 8.14,-8.129 -29.03,-50.468 c -43.5,-26.981 -89.49,-40.512 -137.9,-40.512 -64.08,0 -112.92,15.512 -146.43,46.422 -33.54,30.91 -50.33,74.297 -50.33,130.117 0,19.813 2.03,39.93 6.34,60.43 12.71,64.722 42.04,117.011 88.01,156.652 45.93,39.578 101.54,59.418 166.83,59.418 53.88,0 93.45,-13.809 118.81,-41.398 23.61,-25.27 35.39,-61.551 35.39,-109 0,-23.969 -2.68,-49.551 -8.13,-76.551 z m 151.51,43.219 c 1.22,7.203 2.73,17.851 4.53,31.992 1.81,14.078 2.73,25.668 2.73,34.679 0,22.2 -3.34,40.7 -9.96,55.329 -6.67,14.761 -17.85,22.171 -33.61,22.171 -28.38,0 -52.91,-18.089 -73.46,-54.058 -13.32,-23.442 -24.47,-53.481 -33.57,-90.113 h 143.34"
                fill="rgb(255,255,255)"
                fill-opacity="1" />
            <path
                d="m 2515.46,605.41 c 40.07,0 72.47,-32.39 72.47,-72.422 0,-40.047 -32.4,-72.5 -72.47,-72.5 -40.02,0 -72.43,32.453 -72.43,72.5 0,40.032 32.41,72.422 72.43,72.422"
                fill="rgb(255,255,255)"
                fill-opacity="1" />
            <path
                d="m 596.191,1178.39 c 145.84,0 279.239,-53.39 381.731,-141.7 L 759.41,737.18 c -0.43,-0.539 -1.121,0.781 -1.64,1.09 -42.051,29.8 -91.918,46.23 -143.918,46.23 -136.641,0 -247.461,-110.879 -247.461,-247.551 0,-28.078 4.718,-55.078 13.347,-80.269 0.242,-0.852 0.5,-1.649 0.762,-2.559 32.191,-99.531 130.211,-163.539 229.141,-181.199 78.05,-13.973 158.019,7.66 227.578,50.957 185.101,114.953 299.221,396.84 140.703,712.811 C 1102.34,929.379 1181.25,770.559 1181.25,593.441 1181.25,270.422 919.219,8.41016 596.191,8.41016 273.211,8.41016 11.2383,270.422 11.2383,593.441 c 0,322.981 261.9727,584.949 584.9527,584.949"
                fill="rgb(255,255,255)"
                fill-opacity="1" />
        </g>
    </g>
</svg>
