<?xml version="1.0" encoding="UTF-8" standalone="no"?>
<svg
   xmlns="http://www.w3.org/2000/svg"
   viewBox="0 0 848 156"
   width="217"
   height="40"
   isolation="isolate">
  <path
     style="fill:#ffffff;stroke:none;stroke-width:0"
     d="M 76.617939,1.1594635 C 60.381389,1.7153568 79.213182,12.837867 58.991843,19.472611 36.726887,26.777879 48.709522,3.2570379 30.148033,17.666832 12.166383,31.626473 37.431331,26.117711 25.411664,45.543911 13.004417,65.596527 7.2168757,39.793881 2.1675941,62.884246 -2.7160742,85.217257 13.071268,64.706706 16.261176,87.21665 c -0.0084,-0.06428 -0.01012,-0.130276 -0.01824,-0.194562 0.02493,0.196681 0.0462,0.393657 0.07297,0.589765 -0.0064,-0.04724 -0.018,-0.0926 -0.0243,-0.139836 3.127813,23.162273 -17.5838087,7.309395 -6.7853499,28.223643 10.4873699,20.31174 9.5048319,-5.78447 26.3570659,9.5457 0.797702,0.72566 1.503819,1.42072 2.127153,2.08736 12.969881,13.87094 -9.898538,15.43253 10.744335,24.05082 20.959128,8.75033 3.600984,-10.60262 26.265863,-9.80106 23.39574,0.82742 4.175746,18.79577 26.496907,11.66764 21.62387,-6.90546 -3.991609,-10.46136 13.88078,-24.56345 18.44869,-14.55683 15.15597,11.69062 27.71899,-8.2628 11.40538,-18.11474 -7.0925,-7.04575 -5.58149,-24.022326 0.73678,-2.812573 1.43714,-5.674225 1.80578,-8.122957 5.64246,-15.749783 17.6054,1.715268 14.7563,-20.015559 -2.81604,-21.478766 -10.05162,-0.459656 -19.83316,-15.224479 -0.002,-0.0024 -0.004,-0.0032 -0.006,-0.0064 -0.90008,-1.937903 -1.89734,-3.818491 -2.98517,-5.642154 -7.29713,-17.324021 14.47977,-11.025602 -1.9517,-26.211143 C 112.56958,5.7112561 122.32985,29.892131 101.30324,21.30861 79.59822,12.448344 103.73955,2.2090831 80.350972,1.1957966 78.934849,1.1344582 77.700251,1.1222701 76.617813,1.1593122 Z M 118.40012,32.070492 c 16.83679,33.560448 4.71546,63.499334 -14.94479,75.708928 -7.388127,4.59874 -15.884341,6.89538 -24.174325,5.41125 -10.50772,-1.87574 -20.913278,-8.67183 -24.332402,-19.243388 -0.0277,-0.09666 -0.0593,-0.183107 -0.08511,-0.273601 C 53.94697,90.998052 53.44684,88.1317 53.44684,85.149435 c 0,-14.516443 11.770952,-26.290191 26.284102,-26.290191 5.523112,8e-6 10.818879,1.741445 15.285271,4.90661 0.05513,0.03282 0.13069,0.172799 0.17632,0.115524 z M 35.334322,124.36582 c 0.728095,0.68511 1.458747,1.36887 2.219224,2.01858 -0.761289,-0.65075 -1.490404,-1.33232 -2.219224,-2.01858 z m 80.834418,3.6298 c -0.63351,0.4987 -1.28044,0.97892 -1.93347,1.45313 0.65341,-0.47348 1.29956,-0.95519 1.93347,-1.45313 z"
  />
  <path
     style="fill:#ffffff;stroke:none;stroke-width:0"
     d="m 358.2121,28.956683 c -1.02616,1.865746 -0.93857,-0.728447 -2.54097,0.673814 -1.6024,1.40226 0.98049,1.659512 -1.00487,2.429154 -1.98536,0.769641 -0.25075,-1.161325 -2.37961,-1.117133 -2.12887,0.04419 -0.31562,1.90151 -2.33121,1.214922 -2.01559,-0.686587 0.5544,-1.050806 -1.10481,-2.38536 -1.65921,-1.334554 -1.46404,1.253769 -2.56674,-0.567785 -1.10271,-1.821554 1.10013,-0.448604 0.68694,-2.537451 -0.41319,-2.088848 -1.92743,0.01938 -1.60127,-2.08482 0.32615,-2.104195 1.13111,0.363505 2.15727,-1.502241 1.02616,-1.865746 -1.48895,-1.224083 0.11345,-2.626344 1.6024,-1.40226 0.63282,1.005526 2.61819,0.235885 1.98536,-0.769641 -0.35378,-1.89478 1.77508,-1.938972 2.12887,-0.04419 -0.16156,1.17705 1.85403,1.863637 2.01559,0.686587 0.94693,-1.678888 2.60614,-0.344334 1.65921,1.334554 -0.88036,0.797819 0.22235,2.619373 1.1027,1.821554 1.80456,-0.677426 2.21775,1.411421 0.4132,2.088848 -1.18722,0.04528 -1.51337,2.149476 -0.32616,2.104195 1.81781,0.641011 0.79165,2.506758 z"
     transform="matrix(1.5184985,0,0,1.5118527,-201.09164,16.861661)"
  />
  <path
     style="fill:#ffffff;stroke:none;stroke-width:0"
     d="m 240.11287,74.00266 -4.716,10.3188 c -3.86933,1.76667 -7.94,3.064 -12.212,3.90774 -4.26933,0.84013 -8.50933,1.25626 -12.696,1.25626 -11.52267,0 -20.81867,-2.90253 -27.87734,-8.7052 -7.04666,-5.80413 -10.58666,-13.665595 -10.58666,-23.59893 0,-2.722401 0.28666,-5.441202 0.85466,-8.161469 2.97867,-14.975473 9.95067,-26.498403 20.92,-34.588003 9.99867,-7.36667 22.04801,-11.04893 36.15734,-11.04893 4.19467,0 8.38133,0.4984 12.584,1.5052 4.18667,0.9948 7.808,2.45466 10.87601,4.38013 l -5.19467,12.37453 h -1.68934 c -1.61466,-3.2812 -4.03866,-5.94533 -7.26533,-7.99586 -3.22,-2.03334 -6.77067,-3.0572 -10.63467,-3.0572 -9.35467,0 -17.336,3.92493 -23.948,11.76093 -5.644,6.7296 -9.432,15.05614 -11.368,24.9828 -0.72267,3.762405 -1.08534,7.246806 -1.08534,10.450538 0,7.606665 1.94401,13.589474 5.86267,17.954674 3.90667,4.3572 9.616,6.54266 17.112,6.54266 3.70934,0 7.69601,-0.812 11.96667,-2.47026 4.276,-1.63334 8.104,-3.80841 11.48667,-6.53654 z m 12.09867,-13.935864 c 1.85333,-9.450534 6.12934,-17.052138 12.82,-22.819868 6.692,-5.76294 14.63201,-8.64267 23.82001,-8.64267 8.06933,0 14.42,1.976 19.05067,5.94014 4.64133,3.97186 6.95066,9.4276 6.95066,16.390528 0,2.007869 -0.23732,4.16667 -0.724,6.47867 -1.77733,9.222402 -6.08666,16.774534 -12.94266,22.706264 -6.84801,5.92707 -14.91334,8.88961 -24.18534,8.88961 -7.90001,0 -14.13601,-1.988 -18.68134,-5.95054 -4.56133,-3.9588 -6.83467,-9.42133 -6.83467,-16.385467 0,-2.085334 0.24268,-4.288 0.72667,-6.606667 z m 18.02134,-0.36253 c -0.0827,0.4052 -0.26402,1.624002 -0.54934,3.658269 -0.27468,2.051065 -0.42266,4.027198 -0.42266,5.957332 0,4.237473 0.56533,7.516133 1.69999,9.841733 1.44668,2.96147 3.82401,4.44627 7.13201,4.44627 4.34533,0 8.29867,-3.04627 11.85333,-9.13854 2.976,-5.11453 5.23334,-11.483862 6.76534,-19.08533 0.56666,-2.7172 0.85067,-5.452136 0.85067,-8.171872 0,-4.08133 -0.724,-7.32666 -2.176,-9.7188 -1.45467,-2.40266 -3.70534,-3.61453 -6.77201,-3.61453 -4.59866,0 -8.54266,2.528 -11.85333,7.576 -2.82133,4.4 -4.996,10.485333 -6.528,18.249468 z m 71.708,18.966674 c 5.07601,-8.07241 10.11467,-16.165608 15.12001,-24.256275 7.81733,-12.565067 12.77733,-20.652137 14.86933,-24.252137 3.62533,-6.0848 8.38934,-14.3744 14.27067,-24.85573 0.568,0 1.51733,0.072 2.84533,0.23866 1.32801,0.1624 2.03334,0.2348 2.11734,0.2348 0.56533,0 1.45066,-0.0724 2.652,-0.2348 1.216,-0.16666 2.10133,-0.23866 2.664,-0.23866 1.94133,11.37453 4.192,23.65213 6.77466,36.86773 2.17467,10.965605 4.676,23.140138 7.49467,36.496412 h 5.81334 c -0.40134,1.13066 -0.80267,2.3104 -1.21467,3.55573 -0.40533,1.23333 -0.688,2.27493 -0.84,3.11613 -0.17066,0.8412 -0.28934,1.74267 -0.37199,2.7016 -0.0813,0.96507 -0.12399,2.12654 -0.12399,3.48387 h -1.812 c -1.12134,-1.76573 -3.384,-2.9052 -6.77067,-3.4188 -3.38934,-0.52133 -7.45867,-0.78387 -12.21334,-0.78387 H 357.5369 c -5.56,0 -10.05466,0.224 -13.48,0.65734 -3.42666,0.44266 -6.11067,1.6292 -8.04667,3.54533 h -1.812 c 0.32533,-0.7188 0.672,-1.6828 1.03467,-2.8896 0.36401,-1.188 0.664,-2.3932 0.89733,-3.59427 l 0.61067,-6.37346 z m 48.37334,0 c -0.888,-6.55734 -2.25867,-14.96561 -4.11333,-25.214546 -2.42133,-13.369866 -3.904,-21.813606 -4.476,-25.334936 -3.38267,5.60934 -6.79467,11.23067 -10.21467,16.876 -3.42533,5.640137 -6.656,11.106802 -9.67067,16.385469 -3.02799,5.290536 -6.23466,11.053073 -9.62133,17.288003 2.66,0.16507 5.60934,0.28906 8.82934,0.37453 3.22933,0.0734 6.32799,0.11614 9.31866,0.11614 3.22134,0 6.6,-0.0428 10.15067,-0.11614 3.552,-0.0855 6.816,-0.20946 9.79733,-0.37453 z m 52.24134,-19.806807 c -0.63467,2.801065 -0.96267,5.289066 -0.96267,7.446933 0,4.555734 1.20667,8.187464 3.624,10.869204 2.42134,2.67706 6.09601,4.01987 11.00267,4.01987 2.58267,0 5.164,-0.45734 7.74,-1.38907 2.58,-0.9136 5.08534,-2.26147 7.49601,-4.01614 l 1.08933,1.08387 -3.86134,6.72907 c -5.81333,3.59747 -11.93466,5.4016 -18.38667,5.4016 -8.54133,0 -15.05733,-2.06827 -19.52266,-6.1896 -4.48534,-4.12133 -6.72134,-9.90627 -6.72134,-17.348938 0,-2.641731 0.27867,-5.323998 0.84534,-8.057332 1.696,-8.6296 5.60533,-15.601472 11.73733,-20.886932 6.12533,-5.27707 13.54533,-7.92241 22.24667,-7.92241 7.172,0 12.46934,1.84121 15.848,5.51974 3.14,3.36933 4.71867,8.2068 4.71867,14.533333 0,3.195866 -0.37734,6.606804 -1.09333,10.206802 z m 20.196,-5.762535 c 0.16534,-0.960397 0.35999,-2.380133 0.604,-4.2656 0.24268,-1.87707 0.36535,-3.4224 0.36535,-4.62387 0,-2.96 -0.44534,-5.42666 -1.32534,-7.3772 -0.89067,-1.96813 -2.38133,-2.95613 -4.472,-2.95613 -3.79067,0 -7.05467,2.41187 -9.804,7.20773 -1.78,3.1256 -3.26,7.1308 -4.472,12.01507 z m 40.39734,13.209468 c 3.45867,-3.448531 6.972,-7.160399 10.512,-11.1724 4.27467,-4.7188 7.86534,-8.838528 10.764,-12.364138 2.264,-2.72653 5.76667,-7.05053 10.52667,-12.97026 l 6.288,0.35826 6.04933,-0.35826 -11.364,58.009332 c -0.88666,0 -2.428,-0.0948 -4.608,-0.24682 -2.17467,-0.15998 -3.37333,-0.24119 -3.62266,-0.24119 -0.89067,0 -2.26,0.0812 -4.11334,0.24119 -1.848,0.15202 -3.304,0.24682 -4.352,0.24682 l 7.26,-36.996268 c -5.56,5.605733 -11.292,11.849467 -17.17333,18.735868 -5.232,6.0844 -10.16667,12.16667 -14.756,18.2604 -0.396,0 -1.248,-0.0948 -2.54534,-0.24682 -1.28533,-0.15998 -2.41333,-0.24119 -3.384,-0.24119 -1.444,0 -2.78133,0.0812 -3.99066,0.24119 -1.19067,0.15202 -2.00801,0.24682 -2.40934,0.24682 l 11.36,-58.009342 c 1.37467,0.164 2.67467,0.27867 3.93601,0.35827 1.24933,0.0803 2.67866,0.1204 4.28799,0.1204 2.344,0 4.176,-0.0735 5.51067,-0.236 1.328,-0.16667 2.308,-0.24267 2.95867,-0.24267 z m 0.96667,-57.404278 c 5.15333,5.9292 11.32533,8.88654 18.49467,8.88654 7.18266,0 14.69067,-2.95734 22.50266,-8.88654 l 2.89734,5.16 c -8.456,6.8052 -17.40934,10.21094 -26.84934,10.21094 -4.42933,0 -8.52933,-0.82134 -12.272,-2.4656 -3.752,-1.636 -7.03067,-4.17614 -9.85733,-7.6224 z m 98.44269,37.46521 h -2.78535 c 0,-3.59747 -0.80001,-6.58547 -2.41602,-8.95054 -1.61733,-2.34947 -4.16133,-3.54267 -7.62,-3.54267 -5.07596,0 -9.47865,2.81094 -13.18398,8.41614 -2.98535,4.4 -5.03602,9.526534 -6.16132,15.362399 -0.56535,2.810937 -0.8507,5.613604 -0.8507,8.417201 0,4.792272 1.16934,8.521342 3.50935,11.163072 2.32935,2.63693 5.992,3.96253 11.00001,3.96253 2.49867,0 4.964,-0.5016 7.376,-1.5052 2.42,-0.9964 4.55466,-2.3776 6.41201,-4.13853 l 1.6933,1.6812 -4.35731,7.08386 c -1.77201,1.44787 -4.45067,2.58387 -8.03466,3.42547 -3.58536,0.8412 -6.63335,1.26254 -9.13601,1.26254 -8.29735,0 -14.82933,-1.92401 -19.59867,-5.75987 -4.75334,-3.84427 -7.13067,-9.3708 -7.13067,-16.576137 0,-2.085334 0.24267,-4.325469 0.72533,-6.726536 1.93734,-9.692132 6.328,-17.339069 13.18268,-22.941599 6.85598,-5.60107 15.12133,-8.40107 24.79333,-8.40107 3.70932,0 7.30933,0.4188 10.83732,1.25827 3.49333,0.84013 6.42401,2.1844 8.75734,4.01626 z m 43.53331,-9.60267 -10.02934,51.044272 c -0.89997,0 -2.25732,-0.0948 -4.1253,-0.24682 -1.84536,-0.15999 -3.21869,-0.24119 -4.0987,-0.24119 -0.98266,0 -2.58667,0.0812 -4.84399,0.24119 -2.25865,0.15201 -3.47066,0.24682 -3.62799,0.24682 l 10.03867,-51.044272 c -5.31867,0 -8.95069,0.0761 -10.88667,0.236 -2.90399,0.40146 -5.51736,0.68013 -7.86135,0.8416 0.48535,-1.3588 0.96933,-2.72027 1.45066,-4.0844 0,-1.2796 0.0442,-2.6036 0.12544,-3.95827 h 26.84667 26.97331 c -0.48934,1.35467 -0.93467,2.67867 -1.32932,3.95827 -0.0934,0.4844 -0.12935,1.15893 -0.12935,2.04173 0,0.96507 -0.0352,1.6412 -0.1188,2.04267 -1.29334,-0.0724 -3.31068,-0.27493 -6.04534,-0.6 -2.74401,-0.312 -6.864,-0.4776 -12.33868,-0.4776 z m 26.60801,-6.96507 h 25.27466 c 5.55866,0 10.07334,0.8984 13.54667,2.69587 3.46668,1.81346 5.20535,4.66667 5.20535,8.5864 0,1.2084 -0.0852,2.12027 -0.24541,2.76306 -0.648,3.2068 -2.38402,5.988007 -5.20266,8.350539 -2.82267,2.359867 -6.25468,3.744268 -10.28667,4.142667 4.35333,0.80267 7.50801,1.87707 9.44399,3.24267 2.73868,1.921334 4.10533,4.717198 4.10533,8.401066 0,0.961468 -0.1188,2.127065 -0.36147,3.4828 -1.04933,5.12814 -4.19334,9.1292 -9.43602,12.012 -4.74668,2.65213 -10.34802,3.96934 -16.80935,3.96934 h -26.48663 z m 6.64934,51.282272 h 3.75601 c 3.61733,0 6.72265,-0.86506 9.29733,-2.612 2.588,-1.71813 4.15731,-4.2036 4.72531,-7.4156 0.23604,-1.209332 0.36265,-2.284401 0.36265,-3.272399 0,-2.817201 -0.90134,-4.824936 -2.71466,-6.022402 -1.82269,-1.210933 -4.34,-1.817202 -7.56802,-1.817202 h -3.74398 z m 5.32532,-27.383868 h 3.01466 c 3.30669,0 6.01736,-0.745334 8.10669,-2.222401 2.09198,-1.484399 3.468,-3.866663 4.11198,-7.142663 0.16921,-1.1308 0.23877,-1.92654 0.23877,-2.40574 0,-2.1636 -0.71733,-3.72506 -2.17202,-4.68493 -1.45332,-0.95627 -3.54933,-1.44267 -6.29466,-1.44267 H 688.173 Z m 58.04803,12.6084 c 3.46933,-3.448531 6.972,-7.160399 10.51465,-11.1724 4.27599,-4.7188 7.86268,-8.838534 10.76401,-12.364134 2.25998,-2.72653 5.76933,-7.05053 10.52399,-12.97027 l 6.28802,0.35827 6.04667,-0.35827 -11.36136,58.009342 c -0.88931,0 -2.42399,-0.0948 -4.59866,-0.24682 -2.17866,-0.15999 -3.39333,-0.24119 -3.62933,-0.24119 -0.88668,0 -2.264,0.0812 -4.116,0.24119 -1.84934,0.15201 -3.30001,0.24682 -4.35599,0.24682 l 7.25732,-36.996272 C 760.4956,56.423061 754.77825,62.666795 748.88492,69.553196 743.64627,75.6376 738.7249,81.71986 734.13425,87.8136 c -0.39598,0 -1.25199,-0.0948 -2.54134,-0.24682 -1.29466,-0.15999 -2.42,-0.24119 -3.38266,-0.24119 -1.45868,0 -2.78265,0.0812 -3.984,0.24119 -1.21866,0.15201 -2.02801,0.24682 -2.43333,0.24682 L 733.1716,29.804258 c 1.36797,0.164 2.66932,0.27867 3.928,0.35827 1.248,0.0803 2.67467,0.1204 4.28798,0.1204 2.33333,0 4.17068,-0.0735 5.50669,-0.236 1.33066,-0.16667 2.31199,-0.24267 2.95999,-0.24267 z m 67.11068,-7.446933 c -0.64269,2.801065 -0.96536,5.289066 -0.96536,7.446933 0,4.555738 1.20932,8.187468 3.63601,10.869208 2.41332,2.67706 6.08133,4.01986 10.99465,4.01986 2.58136,0 5.16401,-0.45733 7.74001,-1.38906 2.57601,-0.9136 5.08269,-2.26147 7.50402,-4.01614 l 1.08533,1.08387 -3.87068,6.72907 c -5.8,3.59746 -11.93202,5.4016 -18.38667,5.4016 -8.54401,0 -15.05598,-2.06827 -19.52401,-6.18961 -4.472,-4.12133 -6.71065,-9.90626 -6.71065,-17.348932 0,-2.641731 0.27082,-5.323998 0.84531,-8.057332 1.69467,-8.6296 5.60536,-15.601468 11.73468,-20.886938 6.124,-5.27707 13.53869,-7.9224 22.24401,-7.9224 7.18401,0 12.46002,1.8412 15.84135,5.51974 3.14799,3.36933 4.71867,8.2068 4.71867,14.533329 0,3.195866 -0.35718,6.606804 -1.08404,10.206802 z m 20.20131,-5.762535 c 0.16257,-0.960397 0.36421,-2.380133 0.604,-4.2656 0.2415,-1.877066 0.36421,-3.422396 0.36421,-4.623866 0,-2.96 -0.44534,-5.42667 -1.328,-7.3772 -0.88935,-1.96814 -2.37999,-2.95614 -4.48135,-2.95614 -3.784,0 -7.05466,2.41187 -9.79468,7.20774 -1.77599,3.1256 -3.26265,7.1308 -4.47599,12.015066 h 19.11201"
  />
  <g transform="scale(1.0127484,0.98741208)" style="fill:#ffffff;stroke:none;stroke-width:0">
    <path
       d="m 197.74362,123.44996 v -6.24422 h -25.96281 v 6.24422 h 8.98292 v 20.7593 h 7.99698 v -20.7593 z"
    />
    <path
       d="m 219.30912,133.41881 c 5.91558,0 8.21608,-2.62915 8.21608,-7.5588 -0.0548,-6.18944 -3.61507,-9.4211 -12.81708,-9.4211 -9.74975,0 -13.74824,3.61507 -13.74824,14.29598 0,9.96884 3.83417,14.13166 14.07688,14.13166 3.83417,0 8.5995,-0.49297 11.77638,-2.02664 l -0.76683,-5.03919 c -3.66985,0.38341 -7.61357,0.60251 -10.07839,0.60251 -4.10804,0 -5.86081,-0.93116 -6.40854,-4.98442 z m -9.91407,-4.87488 c 0.2191,-5.09397 1.53367,-6.18944 5.58694,-6.18944 3.50553,0 4.601,0.87638 4.601,3.39598 0,1.53366 -0.27387,2.79346 -2.51959,2.79346 z"
    />
    <path
       d="m 245.0828,132.87107 6.40854,11.33819 h 8.32563 l -8.27085,-13.85779 7.66834,-13.14573 h -8.27086 l -5.75125,10.40704 h -0.49297 l -5.75125,-10.40704 h -8.27086 l 7.66834,13.14573 -8.32562,13.85779 h 8.32562 l 6.40855,-11.33819 z"
    />
    <path
       d="m 290.0744,117.20574 h -7.94221 v 9.91407 h -10.24272 v -9.91407 h -7.99698 v 27.00352 h 7.99698 v -11.44774 h 10.24272 v 11.44774 h 7.94221 z"
    />
    <path
       d="m 323.24083,144.26403 v -27.05829 h -6.90151 l -10.29749,14.73417 c -0.76683,1.09548 -1.47889,2.3005 -2.02663,3.66985 h -0.16432 c 0.16432,-1.47889 0.27387,-2.62914 0.27387,-3.99849 v -14.40553 h -7.17538 v 27.00352 h 6.90151 l 10.18794,-14.40553 c 0.71206,-1.0407 1.58844,-2.62914 2.02663,-3.99849 h 0.2191 c -0.16432,1.64322 -0.27387,2.90301 -0.27387,4.32713 v 14.13166 z"
    />
    <path
       d="m 354.15896,117.20574 h -7.99699 v 11.22864 c -2.46482,0.87639 -4.38191,1.15026 -6.35377,1.15026 -2.02663,0 -2.79346,-0.65729 -2.79346,-2.57438 v -9.80452 h -7.99699 v 12.32412 c 0,4.21759 2.57437,6.18945 8.05176,6.18945 2.46482,0 6.02513,-0.54774 9.09246,-1.58844 v 10.07839 h 7.99699 z"
    />
    <path
       d="m 378.28171,133.41881 c 5.91558,0 8.21608,-2.62915 8.21608,-7.5588 -0.0548,-6.18944 -3.61507,-9.4211 -12.81708,-9.4211 -9.74975,0 -13.74824,3.61507 -13.74824,14.29598 0,9.96884 3.83417,14.13166 14.07688,14.13166 3.83417,0 8.5995,-0.49297 11.77638,-2.02664 l -0.76683,-5.03919 c -3.66985,0.38341 -7.61357,0.60251 -10.07839,0.60251 -4.10804,0 -5.86081,-0.93116 -6.40855,-4.98442 z m -9.91407,-4.87488 c 0.2191,-5.09397 1.53367,-6.18944 5.58694,-6.18944 3.50552,0 4.601,0.87638 4.601,3.39598 0,1.53366 -0.27387,2.79346 -2.5196,2.79346 z"
    />
    <path
       d="m 414.02166,137.80072 c -3.06733,0.43819 -6.57286,0.49296 -8.27085,0.49296 -4.87488,0 -6.51809,-1.64321 -6.51809,-7.61357 0,-5.97035 1.64321,-7.61356 6.51809,-7.61356 2.02663,0 4.76532,0.0548 7.72311,0.10954 l 0.87639,-5.03919 c -2.95779,-1.31458 -7.12061,-1.69799 -9.96885,-1.69799 -9.96884,0 -13.63869,3.77939 -13.63869,14.2412 0,10.40704 3.61507,14.18644 13.52914,14.18644 3.66985,0 7.5588,-0.54774 10.51659,-1.80754 z"
    />
    <path
       d="m 435.64451,130.02283 c 6.02513,-0.82161 6.299,-2.62915 9.6402,-12.81709 h -8.21608 c -2.41005,8.27086 -3.06733,10.18794 -7.44924,10.18794 h -2.02664 c 0.2191,-1.09548 0.32865,-2.19095 0.32865,-3.28643 v -6.90151 h -8.05176 v 27.00352 h 8.05176 v -8.87337 c 0,-0.71206 -0.10955,-1.47889 -0.27387,-2.3005 h 2.46482 c 3.99849,0 4.49146,1.36935 7.61357,11.17387 h 8.43517 c -3.66984,-11.55729 -4.27236,-13.14573 -10.51658,-13.96734 z"
    />
    <path
       d="m 451.44419,123.23087 c 4.38191,-0.27387 8.87337,-0.43819 11.44774,-0.43819 3.39598,0 4.38191,0.76683 4.43668,3.50552 v 1.20503 h -9.6402 c -5.20352,0 -8.27085,2.5196 -8.27085,6.84673 v 2.7387 c 0,5.03919 3.7794,7.77789 8.76382,7.77789 4.8201,0 8.10653,-2.5196 10.02362,-4.76533 l 0.8216,4.10804 h 6.40855 v -17.85628 c 0,-7.61357 -3.72463,-9.91407 -10.68091,-9.91407 -3.72462,0 -10.07839,0.60251 -14.02211,1.31457 z m 5.97035,11.72161 c 0,-1.53367 0.65729,-2.5196 2.62915,-2.57438 h 7.28492 v 3.7794 c -2.35527,1.75276 -4.87487,2.62915 -6.79196,2.62915 -2.13618,0 -3.12211,-0.87639 -3.12211,-2.79347 z"
    />
    <path
       d="m 487.39296,132.70675 c -1.75276,0.16432 -4.49145,0.76683 -5.14874,3.12211 l -2.3005,8.3804 h 8.32563 l 1.80753,-7.23015 c 0.27387,-1.42412 1.2598,-1.97186 3.12211,-1.97186 h 4.98443 v 9.20201 h 7.88743 v -27.16784 c -3.39598,-0.32864 -6.13467,-0.38342 -13.03618,-0.38342 -9.14723,0 -11.55728,2.30051 -11.55728,8.48995 0,3.72463 1.42412,6.46332 5.91557,7.28493 z m 10.79046,-3.01257 h -4.98443 c -3.28643,0 -3.83417,-0.8216 -3.83417,-3.77939 0,-2.68392 0.54774,-3.28644 3.83417,-3.28644 h 4.98443 z"
    />
    <path
       d="m 562.38097,117.15097 h -25.68894 v 27.05829 h 7.88743 V 122.957 h 9.96885 v 21.25226 h 7.83266 z"
    />
    <path
       d="m 582.02853,116.43891 c -10.13317,0 -13.91256,3.88894 -13.91256,14.29598 0,10.35226 3.77939,14.18643 13.91256,14.18643 10.13317,0 13.85779,-3.83417 13.85779,-14.18643 0,-10.40704 -3.72462,-14.29598 -13.85779,-14.29598 z m 0,6.0799 c 4.21759,0 5.42261,1.64321 5.42261,8.21608 0,6.46331 -1.20502,8.10653 -5.42261,8.10653 -4.27236,0 -5.42261,-1.64322 -5.42261,-8.10653 0,-6.57287 1.15025,-8.21608 5.42261,-8.21608 z"
    />
    <path
       d="m 630.5676,138.40323 h -4.27236 v -21.19749 h -13.25527 c -4.87488,0 -7.28493,2.19096 -7.72312,6.57287 -0.54774,4.98442 -1.47889,9.85929 -3.34121,14.62462 h -3.39598 v 13.52914 h 5.31307 l 0.54774,-7.72311 h 20.21156 l 0.60251,7.72311 h 5.31306 z m -11.88593,0 h -9.58542 c 1.64321,-3.50553 2.68392,-7.61357 3.3412,-13.14573 0.16432,-1.69799 1.09548,-2.57437 2.7387,-2.57437 h 3.50552 z"
    />
    <path
       d="m 665.0152,138.40323 h -4.27236 v -21.19749 h -13.25527 c -4.87488,0 -7.28493,2.19096 -7.72312,6.57287 -0.54774,4.98442 -1.47889,9.85929 -3.3412,14.62462 h -3.39598 v 13.52914 h 5.31306 l 0.54774,-7.72311 h 20.21156 l 0.60251,7.72311 h 5.31306 z m -11.88592,0 h -9.58543 c 1.64321,-3.50553 2.68392,-7.61357 3.3412,-13.14573 0.16433,-1.69799 1.09548,-2.57437 2.7387,-2.57437 h 3.50553 z"
    />
    <path
       d="m 686.91962,133.41881 c 5.91558,0 8.21608,-2.62915 8.21608,-7.5588 -0.0548,-6.18944 -3.61507,-9.4211 -12.81708,-9.4211 -9.74975,0 -13.74825,3.61507 -13.74825,14.29598 0,9.96884 3.83418,14.13166 14.07689,14.13166 3.83417,0 8.5995,-0.49297 11.77638,-2.02664 l -0.76683,-5.03919 c -3.66985,0.38341 -7.61357,0.60251 -10.0784,0.60251 -4.10804,0 -5.8608,-0.93116 -6.40854,-4.98442 z m -9.91407,-4.87488 c 0.2191,-5.09397 1.53367,-6.18944 5.58693,-6.18944 3.50553,0 4.60101,0.87638 4.60101,3.39598 0,1.53366 -0.27387,2.79346 -2.5196,2.79346 z"
    />
    <path
       d="m 707.1586,117.20574 h -6.57287 v 37.41055 h 8.05176 v -6.51809 c 0.0548,-1.97186 0,-3.94371 -0.16432,-5.80603 2.5196,1.86232 5.75126,2.62915 9.03769,2.62915 6.79196,0 10.35226,-3.23166 10.35226,-13.96734 0,-9.14723 -2.68392,-14.4603 -9.36633,-14.4603 -4.10804,0 -8.48995,1.97186 -10.73568,4.65578 z m 1.47889,8.21608 c 2.5196,-1.64321 4.32714,-2.57437 6.68241,-2.57437 3.01257,0 4.21759,1.58844 4.21759,8.10653 0,6.73719 -1.31457,7.94221 -4.76533,7.94221 -2.3005,0 -3.99849,-0.54773 -6.13467,-1.09547 z"
    />
    <path
       d="m 763.49693,129.96805 c 5.97035,-0.71206 6.35377,-2.79346 9.6402,-12.76231 h -7.99698 c -2.79347,8.16131 -3.50553,10.24272 -6.90151,10.24272 h -2.35528 c 0.2191,-1.04071 0.32864,-2.19096 0.32864,-3.23166 v -7.01106 h -7.1206 v 7.01106 c 0,1.0407 0.10955,2.19095 0.32864,3.23166 h -2.51959 c -3.28644,0 -4.10804,-2.08141 -6.90151,-10.24272 h -7.94221 c 3.3412,9.96885 3.66985,12.05025 9.69497,12.76231 v 0.2191 c -6.29899,0.87638 -6.84673,2.57437 -10.51658,14.02211 h 8.16131 c 3.50552,-9.69498 4.05326,-11.28342 7.17537,-11.28342 h 2.79347 c -0.16432,0.82161 -0.27387,1.64322 -0.27387,2.35528 v 8.92814 h 7.1206 v -8.92814 c 0,-0.71206 -0.10954,-1.53367 -0.32864,-2.35528 h 2.68392 c 3.28643,0 3.83417,1.58844 7.23015,11.28342 h 8.16131 c -3.61508,-11.44774 -4.27236,-13.14573 -10.46181,-14.02211 z"
    />
    <path
       d="m 794.34913,130.02283 c 6.02513,-0.82161 6.299,-2.62915 9.6402,-12.81709 h -8.21608 c -2.41005,8.27086 -3.06733,10.18794 -7.44924,10.18794 h -2.02664 c 0.2191,-1.09548 0.32865,-2.19095 0.32865,-3.28643 v -6.90151 h -8.05176 v 27.00352 h 8.05176 v -8.87337 c 0,-0.71206 -0.10955,-1.47889 -0.27387,-2.3005 h 2.46482 c 3.99849,0 4.49146,1.36935 7.61357,11.17387 h 8.43518 c -3.66985,-11.55729 -4.27237,-13.14573 -10.51659,-13.96734 z"
    />
    <path
       d="m 810.14884,123.23087 c 4.38191,-0.27387 8.87337,-0.43819 11.44774,-0.43819 3.39598,0 4.38191,0.76683 4.43668,3.50552 v 1.20503 h -9.6402 c -5.20351,0 -8.27085,2.5196 -8.27085,6.84673 v 2.7387 c 0,5.03919 3.7794,7.77789 8.76382,7.77789 4.8201,0 8.10653,-2.5196 10.02362,-4.76533 l 0.8216,4.10804 h 6.40855 v -17.85628 c 0,-7.61357 -3.72463,-9.91407 -10.68091,-9.91407 -3.72462,0 -10.07839,0.60251 -14.02211,1.31457 z m 5.97035,11.72161 c 0,-1.53367 0.65729,-2.5196 2.62915,-2.57438 h 7.28492 v 3.7794 c -2.35527,1.75276 -4.87487,2.62915 -6.79196,2.62915 -2.13618,0 -3.12211,-0.87639 -3.12211,-2.79347 z"
    />
  </g>
</svg>
